<?xml version="1.0" standalone="no"?>
<!DOCTYPE svg PUBLIC "-//W3C//DTD SVG 20010904//EN"
 "http://www.w3.org/TR/2001/REC-SVG-20010904/DTD/svg10.dtd">
<svg version="1.0" xmlns="http://www.w3.org/2000/svg"
 width="700.000000pt" height="700.000000pt" viewBox="0 0 700.000000 700.000000"
 preserveAspectRatio="xMidYMid meet">
<metadata>
Created by potrace 1.14, written by Peter Selinger 2001-2017
</metadata>
<g transform="translate(0.000000,700.000000) scale(0.100000,-0.100000)"
fill="#000000" stroke="none">
<path d="M5956 6979 c-44 -11 -84 -23 -90 -27 -6 -5 -27 -15 -46 -22 -56 -22
-133 -74 -215 -145 -117 -102 -167 -119 -355 -119 -101 0 -267 11 -279 18 -3
2 -39 7 -79 10 -40 4 -78 9 -85 11 -6 2 -40 6 -74 10 -35 3 -68 7 -75 10 -7 2
-40 6 -73 9 -33 4 -71 8 -85 10 -14 3 -56 7 -93 11 -37 3 -76 8 -86 10 -138
26 -756 27 -941 0 -44 -6 -118 -17 -140 -21 -14 -2 -41 -7 -60 -10 -321 -52
-751 -209 -1036 -380 -43 -26 -88 -52 -99 -58 -76 -42 -215 -145 -234 -173
-22 -33 -22 -40 -6 -113 5 -22 -4 -32 -62 -75 -36 -27 -74 -57 -82 -65 -9 -8
-28 -26 -43 -38 l-26 -24 -29 21 c-56 41 -137 25 -168 -33 -21 -39 -16 -110 9
-129 13 -10 1 -27 -79 -111 -91 -95 -95 -98 -122 -88 -62 24 -106 14 -146 -32
-10 -12 -28 -32 -40 -46 -52 -60 -240 -317 -279 -381 -24 -38 -55 -89 -69
-113 -47 -77 -126 -229 -174 -335 -42 -94 -113 -276 -120 -304 -1 -7 -5 -19
-8 -27 -25 -62 -97 -360 -113 -469 -3 -20 -9 -63 -14 -96 -26 -167 -35 -649
-17 -855 13 -140 14 -149 22 -220 4 -36 9 -76 10 -90 7 -68 16 -137 20 -150 2
-8 6 -42 10 -75 3 -33 10 -85 15 -115 9 -54 14 -96 27 -230 13 -126 8 -312
-10 -371 -18 -60 -33 -83 -117 -182 -95 -113 -163 -245 -188 -370 -15 -72 -6
-250 17 -332 67 -241 226 -443 442 -563 62 -34 171 -78 216 -86 15 -3 39 -8
53 -11 54 -13 198 -13 268 0 159 31 282 97 417 226 74 71 144 92 310 93 120 0
267 -9 297 -19 7 -2 38 -6 68 -9 79 -8 222 -26 240 -31 8 -2 47 -7 85 -11 39
-3 72 -8 75 -9 3 -2 39 -6 80 -10 41 -3 86 -8 100 -10 181 -27 916 -26 961 0
3 2 26 6 51 9 86 11 185 29 283 52 11 3 31 7 45 10 98 19 334 99 488 165 477
203 920 530 1337 984 336 366 580 753 740 1175 86 225 153 508 185 779 14 126
17 215 15 461 -1 168 -5 316 -8 330 -3 14 -8 59 -11 100 -3 41 -8 93 -11 115
-4 22 -8 56 -10 75 -7 75 -17 147 -25 200 -5 30 -12 82 -15 115 -3 33 -8 67
-10 75 -2 8 -7 44 -11 80 -3 36 -8 79 -10 95 -2 17 -5 88 -8 158 -6 191 16
276 93 363 82 92 98 112 139 184 97 171 124 360 77 547 -81 320 -326 571 -645
663 -107 31 -269 35 -374 9z"/>
</g>
</svg>
